<svg width="30" height="37" viewBox="0 0 30 37" fill="none" xmlns="http://www.w3.org/2000/svg">
<g clip-path="url(#clip0_46_96)">
<path d="M24.5031 19.143C24.5538 24.5961 29.2868 26.4106 29.3392 26.4338C29.2991 26.5617 28.5829 29.0197 26.8457 31.5586C25.3439 33.7537 23.7851 35.9407 21.3296 35.9859C18.9171 36.0304 18.1412 34.5553 15.3828 34.5553C12.6252 34.5553 11.7633 35.9407 9.47935 36.0304C7.10926 36.1201 5.30441 33.6569 3.79021 31.4698C0.695786 26.9963 -1.66892 18.8285 1.50629 13.3152C3.08365 10.5772 5.90266 8.84351 8.96224 8.79904C11.2896 8.75469 13.4864 10.3648 14.9091 10.3648C16.331 10.3648 19.0005 8.42851 21.8069 8.71285C22.9817 8.76179 26.2796 9.18733 28.3973 12.287C28.2265 12.3928 24.4622 14.5842 24.5031 19.1431M19.9689 5.75321C21.2273 4.23007 22.0741 2.10982 21.8431 0C20.0293 0.0728908 17.8361 1.20866 16.5351 2.73088C15.3692 4.07902 14.3481 6.23663 14.6237 8.30462C16.6453 8.46106 18.7105 7.27727 19.9689 5.75321Z" fill="black"/>
</g>
<defs>
<clipPath id="clip0_46_96">
<rect width="29.3397" height="36.1016" fill="white"/>
</clipPath>
</defs>
</svg>
