<svg width="93" height="46" viewBox="0 0 93 46" fill="none" xmlns="http://www.w3.org/2000/svg">
<rect width="92.6301" height="46" rx="13.2329" fill="#0D1010"/>
<line x1="22.1482" y1="4.70468" x2="4.70483" y2="22.148" stroke="#2AE954" stroke-width="0.830635"/>
<line x1="40.6656" y1="22.1479" x2="23.2222" y2="4.70459" stroke="white" stroke-width="0.830635"/>
<line x1="21.5608" y1="41.5295" x2="4.11748" y2="24.0862" stroke="white" stroke-width="0.830635"/>
<line x1="41.2529" y1="24.086" x2="23.8096" y2="41.5294" stroke="#2EE92A" stroke-width="0.830635"/>
<line x1="22.3113" y1="8.30393" x2="8.30372" y2="22.3115" stroke="#24BDC7" stroke-width="0.830635"/>
<line x1="37.0655" y1="22.3115" x2="23.0579" y2="8.30397" stroke="#C74B24" stroke-width="0.830635"/>
<line x1="21.7239" y1="37.8755" x2="7.71638" y2="23.8679" stroke="#C74B24" stroke-width="0.830635"/>
<line x1="37.6528" y1="23.8679" x2="23.6453" y2="37.8754" stroke="#24BDC7" stroke-width="0.830635"/>
<rect x="12.4407" y="22.408" width="14.8372" height="14.4921" transform="rotate(-42.7088 12.4407 22.408)" fill="url(#paint0_linear_5_9)"/>
<path d="M43.0893 10.396L45.4747 17.6104H45.5687L47.9496 10.396H49.7755L46.5443 19.5616H44.4946L41.2678 10.396H43.0893ZM50.9112 19.5616V12.6874H52.5313V19.5616H50.9112ZM51.7257 11.7118C51.4691 11.7118 51.2483 11.6268 51.0633 11.4567C50.8783 11.2836 50.7859 11.0763 50.7859 10.8346C50.7859 10.59 50.8783 10.3826 51.0633 10.2125C51.2483 10.0395 51.4691 9.95295 51.7257 9.95295C51.9853 9.95295 52.206 10.0395 52.388 10.2125C52.573 10.3826 52.6655 10.59 52.6655 10.8346C52.6655 11.0763 52.573 11.2836 52.388 11.4567C52.206 11.6268 51.9853 11.7118 51.7257 11.7118ZM60.3375 12.6874L57.8894 19.5616H56.0993L53.6512 12.6874H55.3787L56.9586 17.7939H57.0302L58.6145 12.6874H60.3375ZM61.4586 19.5616V12.6874H63.0787V19.5616H61.4586ZM62.2731 11.7118C62.0165 11.7118 61.7957 11.6268 61.6107 11.4567C61.4258 11.2836 61.3333 11.0763 61.3333 10.8346C61.3333 10.59 61.4258 10.3826 61.6107 10.2125C61.7957 10.0395 62.0165 9.95295 62.2731 9.95295C62.5327 9.95295 62.7535 10.0395 62.9355 10.2125C63.1204 10.3826 63.2129 10.59 63.2129 10.8346C63.2129 11.0763 63.1204 11.2836 62.9355 11.4567C62.7535 11.6268 62.5327 11.7118 62.2731 11.7118ZM67.2956 19.6825C66.7556 19.6825 66.2722 19.5437 65.8456 19.2663C65.4189 18.9888 65.0818 18.586 64.8341 18.0579C64.5865 17.5298 64.4627 16.8883 64.4627 16.1335C64.4627 15.3697 64.588 14.7252 64.8386 14.2001C65.0922 13.672 65.4339 13.2737 65.8635 13.0052C66.2931 12.7337 66.772 12.5979 67.3001 12.5979C67.7029 12.5979 68.0341 12.6665 68.2936 12.8038C68.5532 12.938 68.7591 13.1007 68.9112 13.2916C69.0634 13.4796 69.1813 13.6571 69.2648 13.8242H69.3319V10.396H70.9565V19.5616H69.3633V18.4786H69.2648C69.1813 18.6457 69.0604 18.8232 68.9023 19.0112C68.7442 19.1962 68.5353 19.3543 68.2757 19.4856C68.0162 19.6168 67.6895 19.6825 67.2956 19.6825ZM67.7476 18.3533C68.0908 18.3533 68.3831 18.2608 68.6248 18.0758C68.8665 17.8878 69.05 17.6268 69.1753 17.2926C69.3006 16.9585 69.3633 16.5691 69.3633 16.1245C69.3633 15.68 69.3006 15.2936 69.1753 14.9654C69.053 14.6372 68.871 14.3821 68.6293 14.2001C68.3906 14.0181 68.0967 13.9271 67.7476 13.9271C67.3866 13.9271 67.0853 14.0211 66.8436 14.2091C66.6019 14.397 66.4199 14.6566 66.2976 14.9878C66.1753 15.319 66.1141 15.6979 66.1141 16.1245C66.1141 16.5542 66.1753 16.9376 66.2976 17.2747C66.4229 17.6089 66.6064 17.8729 66.8481 18.0669C67.0927 18.2578 67.3926 18.3533 67.7476 18.3533Z" fill="white"/>
<path d="M49.5786 28.4999H48.1823C48.1286 28.2016 48.0286 27.939 47.8824 27.7123C47.7362 27.4855 47.5572 27.2931 47.3454 27.1349C47.1336 26.9768 46.8964 26.8575 46.6338 26.7769C46.3742 26.6963 46.0982 26.6561 45.8058 26.6561C45.2778 26.6561 44.8048 26.7888 44.3871 27.0544C43.9724 27.3199 43.6442 27.7093 43.4026 28.2225C43.1639 28.7356 43.0445 29.3622 43.0445 30.1021C43.0445 30.848 43.1639 31.4776 43.4026 31.9907C43.6442 32.5039 43.9739 32.8918 44.3916 33.1543C44.8093 33.4169 45.2792 33.5482 45.8014 33.5482C46.0908 33.5482 46.3653 33.5094 46.6248 33.4318C46.8874 33.3513 47.1246 33.2334 47.3364 33.0783C47.5483 32.9231 47.7273 32.7337 47.8735 32.5099C48.0227 32.2831 48.1256 32.0236 48.1823 31.7312L49.5786 31.7356C49.504 32.1862 49.3593 32.6009 49.1445 32.9798C48.9327 33.3557 48.6597 33.681 48.3255 33.9554C47.9943 34.227 47.6154 34.4373 47.1887 34.5865C46.7621 34.7357 46.2967 34.8102 45.7924 34.8102C44.9988 34.8102 44.2917 34.6223 43.6711 34.2463C43.0505 33.8674 42.5612 33.3259 42.2031 32.6218C41.8481 31.9176 41.6706 31.0778 41.6706 30.1021C41.6706 29.1235 41.8496 28.2836 42.2076 27.5825C42.5657 26.8783 43.055 26.3383 43.6756 25.9624C44.2961 25.5835 45.0018 25.394 45.7924 25.394C46.2787 25.394 46.7323 25.4641 47.1529 25.6043C47.5766 25.7416 47.957 25.9445 48.2942 26.213C48.6313 26.4785 48.9103 26.8037 49.1311 27.1886C49.3519 27.5705 49.501 28.0076 49.5786 28.4999ZM53.1265 34.8371C52.6909 34.8371 52.297 34.7565 51.945 34.5954C51.5929 34.4313 51.314 34.1941 51.1081 33.8838C50.9052 33.5735 50.8038 33.1931 50.8038 32.7426C50.8038 32.3547 50.8783 32.0355 51.0275 31.7849C51.1767 31.5343 51.3781 31.3358 51.6317 31.1896C51.8853 31.0434 52.1688 30.9331 52.482 30.8585C52.7953 30.7839 53.1146 30.7272 53.4398 30.6884C53.8515 30.6407 54.1857 30.6019 54.4423 30.572C54.6988 30.5392 54.8853 30.487 55.0017 30.4154C55.118 30.3438 55.1762 30.2274 55.1762 30.0663V30.035C55.1762 29.6441 55.0658 29.3413 54.845 29.1265C54.6272 28.9117 54.302 28.8043 53.8694 28.8043C53.4189 28.8043 53.0638 28.9042 52.8043 29.1041C52.5477 29.301 52.3701 29.5203 52.2717 29.762L51.0141 29.4756C51.1633 29.0579 51.3811 28.7207 51.6675 28.4641C51.9569 28.2046 52.2896 28.0166 52.6655 27.9002C53.0415 27.7809 53.4368 27.7212 53.8515 27.7212C54.126 27.7212 54.4169 27.754 54.7242 27.8197C55.0345 27.8823 55.3239 27.9987 55.5924 28.1687C55.8639 28.3388 56.0862 28.582 56.2593 28.8982C56.4323 29.2115 56.5188 29.6188 56.5188 30.12V34.6849H55.212V33.7451H55.1583C55.0718 33.9182 54.942 34.0882 54.769 34.2553C54.5959 34.4224 54.3736 34.5611 54.1021 34.6715C53.8306 34.7819 53.5054 34.8371 53.1265 34.8371ZM53.4174 33.763C53.7874 33.763 54.1036 33.6899 54.3662 33.5437C54.6317 33.3975 54.8331 33.2066 54.9704 32.9709C55.1106 32.7322 55.1807 32.4771 55.1807 32.2056V31.3194C55.133 31.3672 55.0405 31.4119 54.9032 31.4537C54.769 31.4925 54.6153 31.5268 54.4423 31.5566C54.2692 31.5835 54.1006 31.6088 53.9365 31.6327C53.7724 31.6536 53.6352 31.6715 53.5248 31.6864C53.2652 31.7192 53.028 31.7744 52.8132 31.852C52.6014 31.9296 52.4313 32.0415 52.303 32.1877C52.1777 32.3309 52.115 32.5218 52.115 32.7605C52.115 33.0917 52.2374 33.3423 52.482 33.5124C52.7267 33.6795 53.0385 33.763 53.4174 33.763ZM59.6393 30.6034V34.6849H58.3012V27.8107H59.5856V28.9296H59.6707C59.8288 28.5656 60.0764 28.2732 60.4136 28.0524C60.7537 27.8316 61.1818 27.7212 61.698 27.7212C62.1664 27.7212 62.5767 27.8197 62.9287 28.0166C63.2808 28.2105 63.5538 28.4999 63.7477 28.8848C63.9417 29.2697 64.0386 29.7456 64.0386 30.3125V34.6849H62.7005V30.4736C62.7005 29.9753 62.5707 29.586 62.3111 29.3055C62.0516 29.0221 61.695 28.8803 61.2415 28.8803C60.9312 28.8803 60.6552 28.9475 60.4136 29.0817C60.1749 29.216 59.9854 29.4129 59.8452 29.6725C59.7079 29.9291 59.6393 30.2394 59.6393 30.6034ZM71.4678 27.8107L68.975 34.6849H67.5429L65.0456 27.8107H66.4822L68.2231 33.1006H68.2948L70.0312 27.8107H71.4678ZM74.529 34.8371C74.0934 34.8371 73.6996 34.7565 73.3475 34.5954C72.9954 34.4313 72.7165 34.1941 72.5106 33.8838C72.3077 33.5735 72.2063 33.1931 72.2063 32.7426C72.2063 32.3547 72.2808 32.0355 72.43 31.7849C72.5792 31.5343 72.7806 31.3358 73.0342 31.1896C73.2878 31.0434 73.5713 30.9331 73.8845 30.8585C74.1978 30.7839 74.5171 30.7272 74.8423 30.6884C75.254 30.6407 75.5882 30.6019 75.8448 30.572C76.1014 30.5392 76.2878 30.487 76.4042 30.4154C76.5205 30.3438 76.5787 30.2274 76.5787 30.0663V30.035C76.5787 29.6441 76.4683 29.3413 76.2475 29.1265C76.0297 28.9117 75.7045 28.8043 75.2719 28.8043C74.8214 28.8043 74.4663 28.9042 74.2068 29.1041C73.9502 29.301 73.7726 29.5203 73.6742 29.762L72.4166 29.4756C72.5658 29.0579 72.7836 28.7207 73.07 28.4641C73.3594 28.2046 73.6921 28.0166 74.068 27.9002C74.444 27.7809 74.8393 27.7212 75.254 27.7212C75.5285 27.7212 75.8194 27.754 76.1267 27.8197C76.437 27.8823 76.7264 27.9987 76.9949 28.1687C77.2664 28.3388 77.4887 28.582 77.6618 28.8982C77.8348 29.2115 77.9214 29.6188 77.9214 30.12V34.6849H76.6145V33.7451H76.5608C76.4743 33.9182 76.3445 34.0882 76.1715 34.2553C75.9984 34.4224 75.7761 34.5611 75.5046 34.6715C75.2331 34.7819 74.9079 34.8371 74.529 34.8371ZM74.8199 33.763C75.1899 33.763 75.5061 33.6899 75.7687 33.5437C76.0342 33.3975 76.2356 33.2066 76.3729 32.9709C76.5131 32.7322 76.5832 32.4771 76.5832 32.2056V31.3194C76.5355 31.3672 76.443 31.4119 76.3057 31.4537C76.1715 31.4925 76.0178 31.5268 75.8448 31.5566C75.6717 31.5835 75.5031 31.6088 75.339 31.6327C75.1749 31.6536 75.0377 31.6715 74.9273 31.6864C74.6677 31.7192 74.4305 31.7744 74.2157 31.852C74.0039 31.9296 73.8338 32.0415 73.7055 32.1877C73.5802 32.3309 73.5176 32.5218 73.5176 32.7605C73.5176 33.0917 73.6399 33.3423 73.8845 33.5124C74.1292 33.6795 74.441 33.763 74.8199 33.763ZM84.8549 29.489L83.642 29.7038C83.5913 29.5487 83.5108 29.401 83.4004 29.2607C83.293 29.1205 83.1468 29.0056 82.9618 28.9161C82.7768 28.8266 82.5456 28.7819 82.2681 28.7819C81.8892 28.7819 81.5729 28.8669 81.3193 29.037C81.0657 29.2041 80.9389 29.4204 80.9389 29.6859C80.9389 29.9156 81.0239 30.1006 81.194 30.2409C81.3641 30.3811 81.6385 30.496 82.0175 30.5855L83.1095 30.8361C83.742 30.9823 84.2134 31.2075 84.5237 31.5119C84.834 31.8162 84.9891 32.2115 84.9891 32.6979C84.9891 33.1096 84.8698 33.4766 84.6311 33.7988C84.3954 34.1181 84.0657 34.3687 83.642 34.5507C83.2213 34.7327 82.7335 34.8237 82.1786 34.8237C81.4088 34.8237 80.7808 34.6596 80.2944 34.3314C79.8081 34.0002 79.5097 33.5303 79.3994 32.9216L80.6927 32.7247C80.7733 33.0619 80.9389 33.317 81.1895 33.49C81.4401 33.6601 81.7668 33.7451 82.1696 33.7451C82.6082 33.7451 82.9588 33.6541 83.2213 33.4721C83.4839 33.2871 83.6152 33.0619 83.6152 32.7963C83.6152 32.5815 83.5346 32.401 83.3735 32.2548C83.2154 32.1086 82.9722 31.9982 82.644 31.9236L81.4804 31.6685C80.8389 31.5223 80.3645 31.2896 80.0572 30.9704C79.7529 30.6511 79.6007 30.2468 79.6007 29.7575C79.6007 29.3517 79.7141 28.9967 79.9409 28.6924C80.1676 28.388 80.4809 28.1508 80.8807 27.9808C81.2805 27.8077 81.7385 27.7212 82.2547 27.7212C82.9976 27.7212 83.5824 27.8823 84.009 28.2046C84.4357 28.5238 84.7176 28.9519 84.8549 29.489Z" fill="url(#paint1_linear_5_9)"/>
<defs>
<linearGradient id="paint0_linear_5_9" x1="19.8593" y1="22.408" x2="19.8084" y2="42.2085" gradientUnits="userSpaceOnUse">
<stop stop-color="#EA4A17"/>
<stop offset="0.30841" stop-color="#153C3F"/>
<stop offset="1" stop-color="#3B9CE2"/>
<stop offset="1" stop-color="#27DAE6"/>
</linearGradient>
<linearGradient id="paint1_linear_5_9" x1="50.7829" y1="25.4974" x2="91.87" y2="38.9587" gradientUnits="userSpaceOnUse">
<stop stop-color="white"/>
<stop offset="0.569679" stop-color="#C9E0F1"/>
<stop offset="1" stop-color="white" stop-opacity="0.54"/>
</linearGradient>
</defs>
</svg>
